<svg height="2094" width="720" xmlns="http://www.w3.org/2000/svg">
<rect height="2094" fill="#555" width="720"></rect>
<text fill="#7f7" font-family="Courier New" font-size="12" xml:space="preserve">
<tspan x="10" y="26">128 megabytes installed</tspan>
<tspan x="10" y="42"></tspan>
<tspan x="10" y="58">node_modules</tspan>
<tspan x="10" y="74">└─┬ nodegit@0.18.0 </tspan>
<tspan x="10" y="90">  ├─┬ fs-extra@0.26.7 </tspan>
<tspan x="10" y="106">  │ ├── graceful-fs@4.1.11 </tspan>
<tspan x="10" y="122">  │ ├── jsonfile@2.4.0 </tspan>
<tspan x="10" y="138">  │ ├── klaw@1.3.1 </tspan>
<tspan x="10" y="154">  │ ├── path-is-absolute@1.0.1 </tspan>
<tspan x="10" y="170">  │ └── rimraf@2.6.1 </tspan>
<tspan x="10" y="186">  ├── lodash@4.17.4 </tspan>
<tspan x="10" y="202">  ├── nan@2.6.2 </tspan>
<tspan x="10" y="218">  ├─┬ node-gyp@3.6.0 </tspan>
<tspan x="10" y="234">  │ ├─┬ fstream@1.0.11 </tspan>
<tspan x="10" y="250">  │ │ └── inherits@2.0.3 </tspan>
<tspan x="10" y="266">  │ ├─┬ glob@7.1.1 </tspan>
<tspan x="10" y="282">  │ │ ├── fs.realpath@1.0.0 </tspan>
<tspan x="10" y="298">  │ │ ├─┬ inflight@1.0.6 </tspan>
<tspan x="10" y="314">  │ │ │ └── wrappy@1.0.2 </tspan>
<tspan x="10" y="330">  │ │ └── once@1.4.0 </tspan>
<tspan x="10" y="346">  │ ├─┬ minimatch@3.0.3 </tspan>
<tspan x="10" y="362">  │ │ └─┬ brace-expansion@1.1.7 </tspan>
<tspan x="10" y="378">  │ │   ├── balanced-match@0.4.2 </tspan>
<tspan x="10" y="394">  │ │   └── concat-map@0.0.1 </tspan>
<tspan x="10" y="410">  │ ├─┬ mkdirp@0.5.1 </tspan>
<tspan x="10" y="426">  │ │ └── minimist@0.0.8 </tspan>
<tspan x="10" y="442">  │ ├─┬ nopt@3.0.6 </tspan>
<tspan x="10" y="458">  │ │ └── abbrev@1.1.0 </tspan>
<tspan x="10" y="474">  │ ├─┬ npmlog@4.0.2 </tspan>
<tspan x="10" y="490">  │ │ ├─┬ are-we-there-yet@1.1.2 </tspan>
<tspan x="10" y="506">  │ │ │ └── delegates@1.0.0 </tspan>
<tspan x="10" y="522">  │ │ ├── console-control-strings@1.1.0 </tspan>
<tspan x="10" y="538">  │ │ ├─┬ gauge@2.7.3 </tspan>
<tspan x="10" y="554">  │ │ │ ├── aproba@1.1.1 </tspan>
<tspan x="10" y="570">  │ │ │ ├── has-unicode@2.0.1 </tspan>
<tspan x="10" y="586">  │ │ │ ├── object-assign@4.1.1 </tspan>
<tspan x="10" y="602">  │ │ │ ├── signal-exit@3.0.2 </tspan>
<tspan x="10" y="618">  │ │ │ ├─┬ string-width@1.0.2 </tspan>
<tspan x="10" y="634">  │ │ │ │ ├── code-point-at@1.1.0 </tspan>
<tspan x="10" y="650">  │ │ │ │ └─┬ is-fullwidth-code-point@1.0.0 </tspan>
<tspan x="10" y="666">  │ │ │ │   └── number-is-nan@1.0.1 </tspan>
<tspan x="10" y="682">  │ │ │ ├─┬ strip-ansi@3.0.1 </tspan>
<tspan x="10" y="698">  │ │ │ │ └── ansi-regex@2.1.1 </tspan>
<tspan x="10" y="714">  │ │ │ └── wide-align@1.1.0 </tspan>
<tspan x="10" y="730">  │ │ └── set-blocking@2.0.0 </tspan>
<tspan x="10" y="746">  │ ├─┬ osenv@0.1.4 </tspan>
<tspan x="10" y="762">  │ │ ├── os-homedir@1.0.2 </tspan>
<tspan x="10" y="778">  │ │ └── os-tmpdir@1.0.2 </tspan>
<tspan x="10" y="794">  │ ├─┬ request@2.81.0 </tspan>
<tspan x="10" y="810">  │ │ ├── aws-sign2@0.6.0 </tspan>
<tspan x="10" y="826">  │ │ ├── aws4@1.6.0 </tspan>
<tspan x="10" y="842">  │ │ ├── caseless@0.12.0 </tspan>
<tspan x="10" y="858">  │ │ ├─┬ combined-stream@1.0.5 </tspan>
<tspan x="10" y="874">  │ │ │ └── delayed-stream@1.0.0 </tspan>
<tspan x="10" y="890">  │ │ ├── extend@3.0.0 </tspan>
<tspan x="10" y="906">  │ │ ├── forever-agent@0.6.1 </tspan>
<tspan x="10" y="922">  │ │ ├─┬ form-data@2.1.4 </tspan>
<tspan x="10" y="938">  │ │ │ └── asynckit@0.4.0 </tspan>
<tspan x="10" y="954">  │ │ ├─┬ har-validator@4.2.1 </tspan>
<tspan x="10" y="970">  │ │ │ ├─┬ ajv@4.11.7 </tspan>
<tspan x="10" y="986">  │ │ │ │ ├── co@4.6.0 </tspan>
<tspan x="10" y="1002">  │ │ │ │ └─┬ json-stable-stringify@1.0.1 </tspan>
<tspan x="10" y="1018">  │ │ │ │   └── jsonify@0.0.0 </tspan>
<tspan x="10" y="1034">  │ │ │ └── har-schema@1.0.5 </tspan>
<tspan x="10" y="1050">  │ │ ├─┬ hawk@3.1.3 </tspan>
<tspan x="10" y="1066">  │ │ │ ├── boom@2.10.1 </tspan>
<tspan x="10" y="1082">  │ │ │ ├── cryptiles@2.0.5 </tspan>
<tspan x="10" y="1098">  │ │ │ ├── hoek@2.16.3 </tspan>
<tspan x="10" y="1114">  │ │ │ └── sntp@1.0.9 </tspan>
<tspan x="10" y="1130">  │ │ ├─┬ http-signature@1.1.1 </tspan>
<tspan x="10" y="1146">  │ │ │ ├── assert-plus@0.2.0 </tspan>
<tspan x="10" y="1162">  │ │ │ ├─┬ jsprim@1.4.0 </tspan>
<tspan x="10" y="1178">  │ │ │ │ ├── assert-plus@1.0.0 </tspan>
<tspan x="10" y="1194">  │ │ │ │ ├── extsprintf@1.0.2 </tspan>
<tspan x="10" y="1210">  │ │ │ │ ├── json-schema@0.2.3 </tspan>
<tspan x="10" y="1226">  │ │ │ │ └── verror@1.3.6 </tspan>
<tspan x="10" y="1242">  │ │ │ └─┬ sshpk@1.13.0 </tspan>
<tspan x="10" y="1258">  │ │ │   ├── asn1@0.2.3 </tspan>
<tspan x="10" y="1274">  │ │ │   ├── assert-plus@1.0.0 </tspan>
<tspan x="10" y="1290">  │ │ │   ├── bcrypt-pbkdf@1.0.1 </tspan>
<tspan x="10" y="1306">  │ │ │   ├─┬ dashdash@1.14.1 </tspan>
<tspan x="10" y="1322">  │ │ │   │ └── assert-plus@1.0.0 </tspan>
<tspan x="10" y="1338">  │ │ │   ├── ecc-jsbn@0.1.1 </tspan>
<tspan x="10" y="1354">  │ │ │   ├─┬ getpass@0.1.6 </tspan>
<tspan x="10" y="1370">  │ │ │   │ └── assert-plus@1.0.0 </tspan>
<tspan x="10" y="1386">  │ │ │   ├── jodid25519@1.0.2 </tspan>
<tspan x="10" y="1402">  │ │ │   ├── jsbn@0.1.1 </tspan>
<tspan x="10" y="1418">  │ │ │   └── tweetnacl@0.14.5 </tspan>
<tspan x="10" y="1434">  │ │ ├── is-typedarray@1.0.0 </tspan>
<tspan x="10" y="1450">  │ │ ├── isstream@0.1.2 </tspan>
<tspan x="10" y="1466">  │ │ ├── json-stringify-safe@5.0.1 </tspan>
<tspan x="10" y="1482">  │ │ ├─┬ mime-types@2.1.15 </tspan>
<tspan x="10" y="1498">  │ │ │ └── mime-db@1.27.0 </tspan>
<tspan x="10" y="1514">  │ │ ├── oauth-sign@0.8.2 </tspan>
<tspan x="10" y="1530">  │ │ ├── performance-now@0.2.0 </tspan>
<tspan x="10" y="1546">  │ │ ├── qs@6.4.0 </tspan>
<tspan x="10" y="1562">  │ │ ├── safe-buffer@5.0.1 </tspan>
<tspan x="10" y="1578">  │ │ ├── stringstream@0.0.5 </tspan>
<tspan x="10" y="1594">  │ │ ├─┬ tough-cookie@2.3.2 </tspan>
<tspan x="10" y="1610">  │ │ │ └── punycode@1.4.1 </tspan>
<tspan x="10" y="1626">  │ │ ├── tunnel-agent@0.6.0 </tspan>
<tspan x="10" y="1642">  │ │ └── uuid@3.0.1 </tspan>
<tspan x="10" y="1658">  │ ├── semver@5.3.0 </tspan>
<tspan x="10" y="1674">  │ ├─┬ tar@2.2.1 </tspan>
<tspan x="10" y="1690">  │ │ └── block-stream@0.0.9 </tspan>
<tspan x="10" y="1706">  │ └─┬ which@1.2.14 </tspan>
<tspan x="10" y="1722">  │   └── isexe@2.0.0 </tspan>
<tspan x="10" y="1738">  ├─┬ node-pre-gyp@0.6.34 </tspan>
<tspan x="10" y="1754">  │ ├── nopt@4.0.1 </tspan>
<tspan x="10" y="1770">  │ ├─┬ rc@1.2.1 </tspan>
<tspan x="10" y="1786">  │ │ ├── deep-extend@0.4.1 </tspan>
<tspan x="10" y="1802">  │ │ ├── ini@1.3.4 </tspan>
<tspan x="10" y="1818">  │ │ ├── minimist@1.2.0 </tspan>
<tspan x="10" y="1834">  │ │ └── strip-json-comments@2.0.1 </tspan>
<tspan x="10" y="1850">  │ └─┬ tar-pack@3.4.0 </tspan>
<tspan x="10" y="1866">  │   ├─┬ debug@2.6.3 </tspan>
<tspan x="10" y="1882">  │   │ └── ms@0.7.2 </tspan>
<tspan x="10" y="1898">  │   ├── fstream-ignore@1.0.5 </tspan>
<tspan x="10" y="1914">  │   ├─┬ readable-stream@2.2.9 </tspan>
<tspan x="10" y="1930">  │   │ ├── buffer-shims@1.0.0 </tspan>
<tspan x="10" y="1946">  │   │ ├── core-util-is@1.0.2 </tspan>
<tspan x="10" y="1962">  │   │ ├── isarray@1.0.0 </tspan>
<tspan x="10" y="1978">  │   │ ├── process-nextick-args@1.0.7 </tspan>
<tspan x="10" y="1994">  │   │ ├── string_decoder@1.0.0 </tspan>
<tspan x="10" y="2010">  │   │ └── util-deprecate@1.0.2 </tspan>
<tspan x="10" y="2026">  │   └── uid-number@0.0.6 </tspan>
<tspan x="10" y="2042">  └─┬ promisify-node@0.3.0 </tspan>
<tspan x="10" y="2058">    └─┬ nodegit-promise@4.0.0 </tspan>
<tspan x="10" y="2074">      └── asap@2.0.5</tspan>
</text>
</svg>
